<svg xmlns="http://www.w3.org/2000/svg" xmlns:xlink="http://www.w3.org/1999/xlink" width="1587" zoomAndPan="magnify" viewBox="0 0 1190.25 842.249997" height="1122" preserveAspectRatio="xMidYMid meet" version="1.0"><defs><clipPath id="f5cf59028f"><path d="M 202 22 L 991 22 L 991 819.046875 L 202 819.046875 Z M 202 22 " clip-rule="nonzero"/></clipPath></defs><g clip-path="url(#f5cf59028f)"><path fill="#fad7a8" d="M 377.886719 240.269531 C 377.890625 236.699219 377.980469 233.132812 378.160156 229.570312 C 378.339844 226.003906 378.605469 222.445312 378.957031 218.894531 C 379.308594 215.34375 379.75 211.804688 380.277344 208.273438 C 380.804688 204.742188 381.414062 201.226562 382.113281 197.726562 C 382.8125 194.226562 383.597656 190.746094 384.46875 187.285156 C 385.335938 183.824219 386.289062 180.386719 387.328125 176.972656 C 388.367188 173.554688 389.488281 170.167969 390.691406 166.808594 C 391.898438 163.449219 393.183594 160.121094 394.550781 156.824219 C 395.917969 153.527344 397.363281 150.265625 398.890625 147.039062 C 400.417969 143.816406 402.023438 140.628906 403.707031 137.480469 C 405.390625 134.335938 407.152344 131.230469 408.988281 128.167969 C 410.824219 125.109375 412.730469 122.09375 414.714844 119.128906 C 416.699219 116.160156 418.753906 113.242188 420.878906 110.378906 C 423.007812 107.511719 425.203125 104.699219 427.464844 101.9375 C 429.730469 99.179688 432.0625 96.480469 434.457031 93.835938 C 436.855469 91.191406 439.316406 88.605469 441.839844 86.082031 C 444.363281 83.558594 446.945312 81.097656 449.589844 78.699219 C 452.234375 76.304688 454.9375 73.972656 457.695312 71.707031 C 460.453125 69.441406 463.265625 67.246094 466.132812 65.121094 C 468.996094 62.992188 471.914062 60.9375 474.878906 58.953125 C 477.847656 56.96875 480.863281 55.058594 483.921875 53.222656 C 486.980469 51.386719 490.085938 49.628906 493.234375 47.941406 C 496.378906 46.257812 499.566406 44.652344 502.792969 43.125 C 506.015625 41.597656 509.277344 40.148438 512.574219 38.78125 C 515.871094 37.414062 519.199219 36.128906 522.558594 34.921875 C 525.917969 33.71875 529.304688 32.597656 532.71875 31.558594 C 536.132812 30.519531 539.574219 29.566406 543.035156 28.695312 C 546.496094 27.824219 549.976562 27.039062 553.476562 26.339844 C 556.976562 25.640625 560.492188 25.027344 564.019531 24.5 C 567.550781 23.972656 571.089844 23.53125 574.644531 23.179688 C 578.195312 22.824219 581.753906 22.558594 585.316406 22.378906 C 588.882812 22.203125 592.449219 22.109375 596.015625 22.105469 C 884.332031 32.300781 884.898438 447.320312 596.757812 458.398438 C 593.179688 458.40625 589.605469 458.328125 586.03125 458.160156 C 582.460938 457.992188 578.894531 457.738281 575.332031 457.394531 C 571.773438 457.054688 568.222656 456.625 564.683594 456.105469 C 561.144531 455.589844 557.621094 454.988281 554.113281 454.296875 C 550.601562 453.605469 547.113281 452.832031 543.640625 451.96875 C 540.167969 451.109375 536.722656 450.160156 533.296875 449.128906 C 529.871094 448.097656 526.476562 446.984375 523.105469 445.789062 C 519.734375 444.589844 516.394531 443.308594 513.089844 441.949219 C 509.78125 440.585938 506.511719 439.144531 503.273438 437.621094 C 500.039062 436.097656 496.839844 434.496094 493.683594 432.816406 C 490.527344 431.136719 487.410156 429.378906 484.339844 427.546875 C 481.269531 425.714844 478.246094 423.808594 475.265625 421.828125 C 472.289062 419.84375 469.363281 417.792969 466.484375 415.667969 C 463.609375 413.539062 460.785156 411.347656 458.015625 409.082031 C 455.25 406.816406 452.539062 404.488281 449.882812 402.089844 C 447.230469 399.691406 444.636719 397.230469 442.101562 394.707031 C 439.566406 392.183594 437.097656 389.597656 434.691406 386.949219 C 432.285156 384.304688 429.945312 381.601562 427.671875 378.839844 C 425.398438 376.078125 423.195312 373.265625 421.058594 370.394531 C 418.925781 367.527344 416.863281 364.605469 414.871094 361.632812 C 412.878906 358.664062 410.960938 355.644531 409.117188 352.582031 C 407.273438 349.515625 405.507812 346.40625 403.816406 343.253906 C 402.125 340.105469 400.515625 336.914062 398.980469 333.679688 C 397.445312 330.449219 395.992188 327.183594 394.621094 323.882812 C 393.246094 320.578125 391.957031 317.246094 390.746094 313.878906 C 389.539062 310.511719 388.410156 307.117188 387.367188 303.699219 C 386.324219 300.277344 385.367188 296.832031 384.496094 293.363281 C 383.621094 289.894531 382.832031 286.40625 382.132812 282.898438 C 381.429688 279.394531 380.816406 275.871094 380.285156 272.332031 C 379.757812 268.796875 379.316406 265.25 378.960938 261.691406 C 378.605469 258.128906 378.339844 254.566406 378.160156 250.992188 C 377.980469 247.421875 377.890625 243.847656 377.886719 240.269531 Z M 816.800781 458.5 C 815.355469 457.613281 813.855469 456.835938 812.296875 456.164062 C 810.738281 455.496094 809.144531 454.941406 807.507812 454.5 C 805.871094 454.058594 804.210938 453.738281 802.527344 453.539062 C 800.84375 453.335938 799.15625 453.257812 797.460938 453.300781 C 795.765625 453.339844 794.082031 453.503906 792.414062 453.789062 C 790.742188 454.070312 789.097656 454.472656 787.488281 454.996094 C 785.875 455.515625 784.304688 456.148438 782.785156 456.894531 C 781.261719 457.640625 779.800781 458.492188 778.402344 459.449219 C 775.15625 462.085938 771.851562 464.648438 768.496094 467.144531 C 765.136719 469.640625 761.726562 472.058594 758.265625 474.40625 C 754.804688 476.753906 751.292969 479.027344 747.734375 481.222656 C 744.171875 483.421875 740.566406 485.539062 736.917969 487.582031 C 733.265625 489.621094 729.570312 491.585938 725.835938 493.464844 C 722.101562 495.347656 718.328125 497.148438 714.511719 498.867188 C 710.699219 500.589844 706.851562 502.226562 702.96875 503.777344 C 699.085938 505.332031 695.167969 506.800781 691.222656 508.1875 C 687.273438 509.570312 683.300781 510.871094 679.296875 512.085938 C 675.292969 513.300781 671.265625 514.425781 667.214844 515.46875 C 663.164062 516.507812 659.09375 517.460938 655 518.324219 C 650.90625 519.191406 646.796875 519.96875 642.671875 520.65625 C 638.546875 521.34375 634.40625 521.941406 630.253906 522.453125 C 626.105469 522.960938 621.941406 523.382812 617.773438 523.710938 C 613.601562 524.042969 609.429688 524.285156 605.246094 524.433594 C 601.066406 524.585938 596.886719 524.644531 592.703125 524.617188 C 588.519531 524.585938 584.339844 524.46875 580.164062 524.257812 C 575.984375 524.050781 571.8125 523.75 567.648438 523.359375 C 563.484375 522.972656 559.328125 522.492188 555.183594 521.925781 C 551.039062 521.355469 546.910156 520.699219 542.796875 519.953125 C 538.679688 519.207031 534.582031 518.375 530.5 517.453125 C 526.421875 516.53125 522.363281 515.519531 518.328125 514.421875 C 514.289062 513.324219 510.277344 512.140625 506.292969 510.871094 C 502.308594 509.601562 498.351562 508.246094 494.425781 506.804688 C 490.496094 505.363281 486.601562 503.839844 482.742188 502.234375 C 478.878906 500.625 475.054688 498.933594 471.265625 497.160156 C 467.476562 495.386719 463.730469 493.535156 460.019531 491.601562 C 456.3125 489.664062 452.644531 487.652344 449.023438 485.558594 C 445.402344 483.46875 441.828125 481.296875 438.296875 479.050781 C 434.769531 476.804688 431.292969 474.484375 427.863281 472.089844 C 424.433594 469.691406 421.058594 467.222656 417.734375 464.683594 C 414.414062 462.140625 411.148438 459.527344 407.9375 456.847656 C 406.730469 456.292969 405.496094 455.8125 404.230469 455.40625 C 402.964844 455 401.679688 454.671875 400.378906 454.425781 C 399.074219 454.175781 397.757812 454.003906 396.433594 453.914062 C 395.109375 453.824219 393.78125 453.8125 392.457031 453.882812 C 391.128906 453.953125 389.8125 454.101562 388.503906 454.328125 C 387.195312 454.558594 385.90625 454.867188 384.636719 455.25 C 383.363281 455.636719 382.121094 456.097656 380.90625 456.632812 C 379.691406 457.167969 378.511719 457.773438 377.371094 458.453125 C 370.667969 462.910156 364.105469 467.574219 357.691406 472.4375 C 351.273438 477.300781 345.011719 482.355469 338.90625 487.605469 C 332.800781 492.851562 326.863281 498.285156 321.09375 503.898438 C 315.324219 509.515625 309.730469 515.300781 304.316406 521.261719 C 298.90625 527.21875 293.679688 533.339844 288.640625 539.621094 C 283.605469 545.902344 278.765625 552.335938 274.125 558.914062 C 269.484375 565.492188 265.050781 572.210938 260.824219 579.0625 C 256.597656 585.914062 252.585938 592.890625 248.789062 599.992188 C 244.992188 607.089844 241.417969 614.300781 238.066406 621.621094 C 234.714844 628.941406 231.589844 636.355469 228.695312 643.871094 C 225.796875 651.382812 223.136719 658.976562 220.710938 666.652344 C 218.28125 674.328125 216.09375 682.074219 214.140625 689.886719 C 212.191406 697.695312 210.484375 705.5625 209.015625 713.476562 C 207.550781 721.394531 206.332031 729.347656 205.355469 737.339844 C 204.378906 745.332031 203.648438 753.347656 203.167969 761.382812 C 202.683594 769.421875 202.449219 777.464844 202.464844 785.515625 C 202.464844 786.613281 202.515625 787.710938 202.625 788.800781 C 202.730469 789.894531 202.890625 790.980469 203.105469 792.054688 C 203.320312 793.132812 203.585938 794.195312 203.902344 795.246094 C 204.222656 796.296875 204.589844 797.328125 205.011719 798.34375 C 205.429688 799.359375 205.898438 800.351562 206.417969 801.316406 C 206.933594 802.285156 207.496094 803.226562 208.105469 804.140625 C 208.714844 805.050781 209.371094 805.933594 210.066406 806.78125 C 210.761719 807.628906 211.5 808.441406 212.273438 809.21875 C 213.050781 809.996094 213.863281 810.730469 214.710938 811.429688 C 215.5625 812.125 216.441406 812.777344 217.355469 813.386719 C 218.265625 813.996094 219.207031 814.558594 220.175781 815.078125 C 221.144531 815.59375 222.136719 816.0625 223.148438 816.484375 C 224.164062 816.902344 225.195312 817.273438 226.246094 817.589844 C 227.296875 817.910156 228.363281 818.175781 229.4375 818.386719 C 230.515625 818.601562 231.601562 818.761719 232.691406 818.871094 C 233.785156 818.976562 234.878906 819.03125 235.976562 819.03125 L 957.167969 819.03125 C 958.265625 819.03125 959.363281 818.976562 960.457031 818.871094 C 961.546875 818.761719 962.632812 818.601562 963.710938 818.386719 C 964.785156 818.175781 965.847656 817.910156 966.898438 817.589844 C 967.949219 817.273438 968.984375 816.902344 969.996094 816.484375 C 971.011719 816.0625 972.003906 815.59375 972.972656 815.078125 C 973.941406 814.558594 974.878906 813.996094 975.792969 813.386719 C 976.707031 812.777344 977.585938 812.125 978.433594 811.429688 C 979.285156 810.730469 980.097656 809.996094 980.871094 809.21875 C 981.648438 808.441406 982.386719 807.628906 983.082031 806.78125 C 983.777344 805.933594 984.429688 805.050781 985.039062 804.140625 C 985.652344 803.226562 986.214844 802.285156 986.730469 801.316406 C 987.25 800.351562 987.71875 799.359375 988.136719 798.34375 C 988.558594 797.328125 988.925781 796.296875 989.246094 795.246094 C 989.5625 794.195312 989.828125 793.132812 990.042969 792.054688 C 990.257812 790.980469 990.417969 789.894531 990.523438 788.800781 C 990.628906 787.710938 990.683594 786.613281 990.683594 785.515625 C 990.675781 777.484375 990.425781 769.457031 989.929688 761.4375 C 989.433594 753.421875 988.695312 745.425781 987.710938 737.453125 C 986.730469 729.476562 985.503906 721.542969 984.035156 713.644531 C 982.566406 705.746094 980.859375 697.898438 978.914062 690.105469 C 976.96875 682.3125 974.785156 674.582031 972.367188 666.921875 C 969.949219 659.261719 967.300781 651.683594 964.421875 644.183594 C 961.539062 636.683594 958.433594 629.277344 955.101562 621.96875 C 951.769531 614.660156 948.21875 607.457031 944.445312 600.363281 C 940.675781 593.269531 936.691406 586.300781 932.492188 579.449219 C 928.296875 572.597656 923.894531 565.882812 919.289062 559.300781 C 914.679688 552.71875 909.878906 546.285156 904.878906 539.996094 C 899.878906 533.707031 894.691406 527.578125 889.320312 521.605469 C 883.945312 515.636719 878.394531 509.832031 872.667969 504.199219 C 866.941406 498.566406 861.046875 493.113281 854.988281 487.839844 C 848.925781 482.566406 842.710938 477.480469 836.339844 472.585938 C 829.96875 467.691406 823.457031 462.996094 816.800781 458.5 Z M 816.800781 458.5 " fill-opacity="1" fill-rule="nonzero"/></g></svg>