<svg xmlns="http://www.w3.org/2000/svg" xmlns:xlink="http://www.w3.org/1999/xlink" width="1587" zoomAndPan="magnify" viewBox="0 0 1190.25 842.249997" height="1122" preserveAspectRatio="xMidYMid meet" version="1.0"><defs><clipPath id="6405cab93f"><path d="M 911 52 L 984.230469 52 L 984.230469 126 L 911 126 Z M 911 52 " clip-rule="nonzero"/></clipPath><clipPath id="eee476471e"><path d="M 911 166 L 984.230469 166 L 984.230469 240 L 911 240 Z M 911 166 " clip-rule="nonzero"/></clipPath><clipPath id="21d71e8184"><path d="M 911 279 L 984.230469 279 L 984.230469 353 L 911 353 Z M 911 279 " clip-rule="nonzero"/></clipPath><clipPath id="bbc9272c1d"><path d="M 205.671875 166 L 279 166 L 279 240 L 205.671875 240 Z M 205.671875 166 " clip-rule="nonzero"/></clipPath><clipPath id="5af6d70bc3"><path d="M 205.671875 393 L 279 393 L 279 467 L 205.671875 467 Z M 205.671875 393 " clip-rule="nonzero"/></clipPath><clipPath id="08bbdde7a8"><path d="M 205.671875 31.34375 L 984.230469 31.34375 L 984.230469 809.898438 L 205.671875 809.898438 Z M 205.671875 31.34375 " clip-rule="nonzero"/></clipPath><clipPath id="9db0ec42d3"><path d="M 205.671875 279 L 279 279 L 279 353 L 205.671875 353 Z M 205.671875 279 " clip-rule="nonzero"/></clipPath><clipPath id="8ca7279f49"><path d="M 205.671875 52 L 279 52 L 279 126 L 205.671875 126 Z M 205.671875 52 " clip-rule="nonzero"/></clipPath><clipPath id="b7912176ca"><path d="M 911 393 L 984.230469 393 L 984.230469 467 L 911 467 Z M 911 393 " clip-rule="nonzero"/></clipPath></defs><g clip-path="url(#6405cab93f)"><path fill="#fad7a8" d="M 947.675781 125.808594 C 967.773438 125.808594 984.125 109.457031 984.125 89.359375 C 984.125 69.261719 967.773438 52.914062 947.675781 52.914062 C 927.578125 52.914062 911.230469 69.261719 911.230469 89.359375 C 911.230469 109.457031 927.578125 125.808594 947.675781 125.808594 Z M 947.675781 64.101562 C 961.605469 64.101562 972.933594 75.433594 972.933594 89.359375 C 972.933594 103.289062 961.605469 114.621094 947.675781 114.621094 C 933.75 114.621094 922.417969 103.289062 922.417969 89.359375 C 922.417969 75.433594 933.75 64.101562 947.675781 64.101562 Z M 947.675781 64.101562 " fill-opacity="1" fill-rule="nonzero"/></g><g clip-path="url(#eee476471e)"><path fill="#fad7a8" d="M 947.675781 166.414062 C 927.578125 166.414062 911.230469 182.765625 911.230469 202.863281 C 911.230469 222.960938 927.578125 239.308594 947.675781 239.308594 C 967.773438 239.308594 984.125 222.957031 984.125 202.863281 C 984.125 182.765625 967.773438 166.414062 947.675781 166.414062 Z M 959.84375 183.25 C 959.300781 183.222656 958.753906 183.210938 958.203125 183.210938 C 941.710938 183.277344 927.917969 196.75 927.484375 213.238281 C 927.480469 213.386719 927.476562 213.53125 927.476562 213.675781 C 927.453125 215.449219 927.691406 217.167969 928.117188 218.816406 C 924.558594 214.464844 922.417969 208.910156 922.417969 202.863281 C 922.417969 188.933594 933.75 177.601562 947.675781 177.601562 C 954.148438 177.601562 960.039062 180.070312 964.515625 184.085938 C 963.023438 183.628906 961.464844 183.328125 959.84375 183.246094 Z M 959.84375 183.25 " fill-opacity="1" fill-rule="nonzero"/></g><g clip-path="url(#21d71e8184)"><path fill="#fad7a8" d="M 947.675781 279.914062 C 927.578125 279.914062 911.230469 296.265625 911.230469 316.363281 C 911.230469 336.460938 927.578125 352.808594 947.675781 352.808594 C 967.773438 352.808594 984.125 336.457031 984.125 316.363281 C 984.125 296.265625 967.773438 279.914062 947.675781 279.914062 Z M 947.675781 341.621094 C 933.75 341.621094 922.417969 330.289062 922.417969 316.363281 C 922.417969 302.433594 933.75 291.101562 947.675781 291.101562 C 961.605469 291.101562 972.933594 302.433594 972.933594 316.363281 C 972.933594 330.289062 961.605469 341.621094 947.675781 341.621094 Z M 947.675781 341.621094 " fill-opacity="1" fill-rule="nonzero"/></g><g clip-path="url(#bbc9272c1d)"><path fill="#fad7a8" d="M 242.121094 239.308594 C 262.21875 239.308594 278.570312 222.957031 278.570312 202.863281 C 278.570312 182.765625 262.21875 166.414062 242.121094 166.414062 C 222.023438 166.414062 205.671875 182.765625 205.671875 202.863281 C 205.671875 222.960938 222.023438 239.308594 242.121094 239.308594 Z M 242.121094 177.601562 C 256.046875 177.601562 267.378906 188.933594 267.378906 202.863281 C 267.378906 216.789062 256.046875 228.121094 242.121094 228.121094 C 228.195312 228.121094 216.863281 216.789062 216.863281 202.863281 C 216.863281 188.933594 228.195312 177.601562 242.121094 177.601562 Z M 242.121094 177.601562 " fill-opacity="1" fill-rule="nonzero"/></g><g clip-path="url(#5af6d70bc3)"><path fill="#fad7a8" d="M 242.121094 466.308594 C 262.21875 466.308594 278.570312 449.960938 278.570312 429.863281 C 278.570312 409.765625 262.21875 393.414062 242.121094 393.414062 C 222.023438 393.414062 205.671875 409.765625 205.671875 429.863281 C 205.671875 449.960938 222.023438 466.308594 242.121094 466.308594 Z M 242.121094 404.601562 C 256.046875 404.601562 267.378906 415.933594 267.378906 429.863281 C 267.378906 443.789062 256.046875 455.121094 242.121094 455.121094 C 228.195312 455.121094 216.863281 443.789062 216.863281 429.863281 C 216.863281 415.933594 228.195312 404.601562 242.121094 404.601562 Z M 242.121094 404.601562 " fill-opacity="1" fill-rule="nonzero"/></g><g clip-path="url(#08bbdde7a8)"><path fill="#fad7a8" d="M 965.398438 502.265625 L 879.992188 502.265625 C 888.152344 494.660156 893.269531 483.828125 893.269531 471.820312 L 893.269531 62.929688 C 893.269531 45.511719 879.097656 31.34375 861.679688 31.34375 L 338.164062 31.34375 C 315.207031 31.34375 296.53125 50.019531 296.53125 72.976562 L 296.53125 471.820312 C 296.53125 474.910156 299.035156 477.414062 302.125 477.414062 C 305.214844 477.414062 307.71875 474.910156 307.71875 471.820312 L 307.71875 72.976562 C 307.71875 56.191406 321.375 42.53125 338.164062 42.53125 L 861.679688 42.53125 C 872.929688 42.53125 882.078125 51.683594 882.078125 62.929688 L 882.078125 471.820312 C 882.078125 488.609375 868.421875 502.265625 851.632812 502.265625 L 747.480469 502.265625 L 747.480469 471.894531 L 841.4375 471.894531 C 847.109375 471.894531 851.707031 467.296875 851.707031 461.625 L 851.707031 83.171875 C 851.707031 77.5 847.109375 72.902344 841.4375 72.902344 L 348.359375 72.902344 C 342.6875 72.902344 338.089844 77.5 338.089844 83.171875 L 338.089844 461.625 C 338.089844 467.296875 342.6875 471.894531 348.359375 471.894531 L 442.320312 471.894531 L 442.320312 502.265625 L 224.398438 502.265625 C 214.074219 502.265625 205.671875 510.664062 205.671875 520.992188 L 205.671875 578.875 C 205.671875 589.199219 214.074219 597.597656 224.398438 597.597656 L 406.066406 597.597656 L 406.066406 676.609375 C 406.066406 688.386719 415.648438 697.964844 427.425781 697.964844 L 498.929688 697.964844 L 506.730469 726.164062 C 509.058594 734.582031 516.789062 740.464844 525.523438 740.464844 L 562.566406 740.464844 L 562.566406 804.199219 C 562.566406 807.289062 565.070312 809.792969 568.160156 809.792969 C 571.25 809.792969 573.753906 807.289062 573.753906 804.199219 L 573.753906 740.464844 L 616.042969 740.464844 L 616.042969 804.199219 C 616.042969 807.289062 618.546875 809.792969 621.636719 809.792969 C 624.726562 809.792969 627.230469 807.289062 627.230469 804.199219 L 627.230469 740.464844 L 664.273438 740.464844 C 673.011719 740.464844 680.738281 734.582031 683.066406 726.164062 L 690.867188 697.964844 L 762.375 697.964844 C 774.148438 697.964844 783.730469 688.386719 783.730469 676.609375 L 783.730469 580.089844 C 783.730469 568.316406 774.148438 558.734375 762.375 558.734375 L 747.480469 558.734375 L 747.480469 513.457031 L 965.398438 513.457031 C 969.554688 513.457031 972.933594 516.835938 972.933594 520.992188 L 972.933594 562.765625 L 877.46875 562.765625 C 874.378906 562.765625 871.875 565.269531 871.875 568.359375 C 871.875 571.449219 874.378906 573.953125 877.46875 573.953125 L 972.933594 573.953125 L 972.933594 578.875 C 972.933594 583.027344 969.554688 586.410156 965.398438 586.410156 L 812.761719 586.410156 C 809.671875 586.410156 807.164062 588.914062 807.164062 592.003906 C 807.164062 595.09375 809.671875 597.597656 812.761719 597.597656 L 965.398438 597.597656 C 975.726562 597.597656 984.125 589.199219 984.125 578.875 L 984.125 520.992188 C 984.125 510.664062 975.726562 502.265625 965.398438 502.265625 Z M 582.34375 157.890625 C 584.527344 155.707031 588.066406 155.707031 590.253906 157.890625 L 688.140625 255.777344 C 690.324219 257.964844 690.324219 261.503906 688.140625 263.691406 C 687.046875 264.78125 685.613281 265.328125 684.183594 265.328125 C 682.753906 265.328125 681.320312 264.78125 680.226562 263.691406 L 582.34375 165.804688 C 580.15625 163.621094 580.15625 160.078125 582.34375 157.890625 Z M 501.660156 179.632812 C 503.84375 177.449219 507.386719 177.449219 509.570312 179.632812 L 644.394531 314.453125 L 628.566406 314.453125 L 501.660156 187.546875 C 499.472656 185.359375 499.472656 181.816406 501.660156 179.632812 Z M 319.988281 561.441406 C 316.898438 561.441406 314.390625 563.949219 314.390625 567.039062 C 314.390625 570.128906 316.898438 572.632812 319.988281 572.632812 L 407.4375 572.632812 C 406.566406 574.957031 406.066406 577.464844 406.066406 580.089844 L 406.066406 586.410156 L 224.398438 586.410156 C 220.242188 586.410156 216.863281 583.027344 216.863281 578.875 L 216.863281 520.992188 C 216.863281 516.835938 220.242188 513.457031 224.398438 513.457031 L 442.320312 513.457031 L 442.320312 558.734375 L 427.425781 558.734375 C 423.65625 558.734375 420.121094 559.726562 417.046875 561.441406 Z M 535.121094 721.441406 C 535.03125 721.59375 534.945312 721.746094 534.859375 721.902344 C 533.492188 724.328125 533.46875 726.992188 534.375 729.273438 L 525.523438 729.273438 C 521.800781 729.273438 518.507812 726.769531 517.515625 723.179688 L 510.539062 697.964844 L 560.894531 697.964844 C 550.242188 702.90625 541.128906 710.941406 535.121094 721.441406 Z M 762.375 569.925781 C 767.980469 569.925781 772.539062 574.484375 772.539062 580.089844 L 772.539062 676.609375 C 772.539062 682.21875 767.980469 686.777344 762.375 686.777344 L 427.425781 686.777344 C 421.820312 686.777344 417.257812 682.21875 417.257812 676.609375 L 417.257812 580.089844 C 417.257812 574.484375 421.820312 569.925781 427.425781 569.925781 L 442.320312 569.925781 L 442.320312 629.46875 C 442.320312 632.558594 444.824219 635.066406 447.914062 635.066406 C 451.003906 635.066406 453.507812 632.558594 453.507812 629.46875 L 453.507812 351.992188 C 453.507812 337.464844 465.328125 325.644531 479.855469 325.644531 L 709.941406 325.644531 C 724.472656 325.644531 736.292969 337.464844 736.292969 351.992188 L 736.292969 629.46875 C 736.292969 632.558594 738.796875 635.066406 741.886719 635.066406 C 744.976562 635.066406 747.480469 632.558594 747.480469 629.46875 L 747.480469 569.925781 Z M 762.375 569.925781 " fill-opacity="1" fill-rule="nonzero"/></g><g clip-path="url(#9db0ec42d3)"><path fill="#fad7a8" d="M 242.121094 352.808594 C 262.21875 352.808594 278.570312 336.457031 278.570312 316.363281 C 278.570312 296.265625 262.21875 279.914062 242.121094 279.914062 C 222.023438 279.914062 205.671875 296.265625 205.671875 316.363281 C 205.671875 336.460938 222.023438 352.808594 242.121094 352.808594 Z M 242.121094 291.101562 C 248.59375 291.101562 254.484375 293.570312 258.957031 297.585938 C 257.464844 297.128906 255.910156 296.828125 254.289062 296.75 C 253.746094 296.722656 253.199219 296.710938 252.648438 296.710938 C 236.152344 296.777344 222.363281 310.25 221.929688 326.738281 C 221.925781 326.886719 221.921875 327.03125 221.921875 327.175781 C 221.898438 328.949219 222.136719 330.667969 222.5625 332.320312 C 219.003906 327.964844 216.863281 322.410156 216.863281 316.363281 C 216.863281 302.433594 228.195312 291.101562 242.121094 291.101562 Z M 242.121094 291.101562 " fill-opacity="1" fill-rule="nonzero"/></g><g clip-path="url(#8ca7279f49)"><path fill="#fad7a8" d="M 242.121094 125.808594 C 262.21875 125.808594 278.570312 109.457031 278.570312 89.359375 C 278.570312 69.261719 262.21875 52.914062 242.121094 52.914062 C 222.023438 52.914062 205.671875 69.261719 205.671875 89.359375 C 205.671875 109.457031 222.023438 125.808594 242.121094 125.808594 Z M 242.121094 64.101562 C 248.59375 64.101562 254.484375 66.570312 258.957031 70.585938 C 257.464844 70.128906 255.910156 69.828125 254.289062 69.746094 C 253.746094 69.722656 253.199219 69.707031 252.648438 69.710938 C 236.152344 69.777344 222.363281 83.25 221.929688 99.738281 C 221.925781 99.886719 221.921875 100.03125 221.921875 100.175781 C 221.898438 101.949219 222.136719 103.667969 222.5625 105.320312 C 219.003906 100.964844 216.863281 95.410156 216.863281 89.359375 C 216.863281 75.433594 228.195312 64.101562 242.121094 64.101562 Z M 242.121094 64.101562 " fill-opacity="1" fill-rule="nonzero"/></g><g clip-path="url(#b7912176ca)"><path fill="#fad7a8" d="M 947.675781 393.414062 C 927.578125 393.414062 911.230469 409.765625 911.230469 429.863281 C 911.230469 449.960938 927.578125 466.308594 947.675781 466.308594 C 967.773438 466.308594 984.125 449.960938 984.125 429.863281 C 984.125 409.765625 967.773438 393.414062 947.675781 393.414062 Z M 959.84375 410.25 C 959.300781 410.222656 958.753906 410.210938 958.203125 410.210938 C 941.710938 410.277344 927.917969 423.75 927.484375 440.242188 C 927.480469 440.386719 927.476562 440.53125 927.476562 440.679688 C 927.453125 442.449219 927.691406 444.167969 928.117188 445.816406 C 924.558594 441.464844 922.417969 435.910156 922.417969 429.863281 C 922.417969 415.933594 933.75 404.601562 947.675781 404.601562 C 954.148438 404.601562 960.042969 407.070312 964.515625 411.089844 C 963.023438 410.632812 961.464844 410.328125 959.84375 410.25 Z M 959.84375 410.25 " fill-opacity="1" fill-rule="nonzero"/></g><path fill="#fad7a8" d="M 900.136719 535.003906 C 900.136719 531.914062 897.632812 529.410156 894.542969 529.410156 L 778.136719 529.410156 C 775.046875 529.410156 772.539062 531.914062 772.539062 535.003906 C 772.539062 538.09375 775.046875 540.601562 778.136719 540.601562 L 894.542969 540.601562 C 897.632812 540.601562 900.136719 538.09375 900.136719 535.003906 Z M 900.136719 535.003906 " fill-opacity="1" fill-rule="nonzero"/><path fill="#fad7a8" d="M 325.960938 525.871094 L 247.445312 525.871094 C 244.359375 525.871094 241.851562 528.375 241.851562 531.464844 C 241.851562 534.554688 244.359375 537.058594 247.445312 537.058594 L 325.960938 537.058594 C 329.050781 537.058594 331.558594 534.554688 331.558594 531.464844 C 331.558594 528.375 329.050781 525.871094 325.960938 525.871094 Z M 325.960938 525.871094 " fill-opacity="1" fill-rule="nonzero"/></svg>